<svg
	class="logo"
	viewBox="0 0 1024 1024"
	version="1.1"
	xmlns="http://www.w3.org/2000/svg"
	width="24"
	height="24"
>
	<path
		d="M896 554.666667c0 212.074667-171.925333 341.333333-384 341.333333S128 766.741333 128 554.666667 299.925333 128 512 128s384 214.592 384 426.666667z"
		fill="#CFD8DC"
		p-id="3918"
	></path>
	<path
		d="M618.666667 693.333333c0 32-106.666667 50.538667-106.666667 71.893334 0-21.354667-106.666667-39.893333-106.666667-71.893334 0-28.032 21.333333-32 42.666667-32h128c21.333333 0 42.666667 0 42.666667 32z"
		fill="#37474F"
		p-id="3919"
	></path>
	<path
		d="M847.146667 356.885333c3.114667-2.624 6.186667-5.312 9.130666-8.256a138.602667 138.602667 0 0 0 0-196.074666c-54.144-54.186667-75.904-9.472-130.048 44.693333-1.792 1.792-3.626667 3.562667-5.461333 5.333333 52.288 40.192 95.786667 93.866667 126.378667 154.304zM177.152 356.330667c30.656-60.416 74.218667-114.026667 126.592-154.133334-1.706667-1.642667-3.413333-3.285333-5.077333-4.949333-54.144-54.165333-75.904-98.88-130.048-44.714667a138.602667 138.602667 0 0 0 0 196.074667c2.752 2.752 5.610667 5.248 8.533333 7.722667zM579.882667 444.629333s45.973333 169.386667 128 170.666667c81.770667 1.237333 85.333333-64 67.605333-85.376-21.610667-26.026667-50.709333-60.416-67.605333-85.290667-16.896-24.917333-40-85.397333-91.989334-85.376-57.344 0.042667-36.010667 85.376-36.010666 85.376zM444.117333 444.629333s-45.973333 169.386667-128 170.666667c-81.770667 1.237333-85.333333-64-67.605333-85.376 21.610667-26.026667 50.709333-60.416 67.605333-85.290667 16.896-24.917333 40-85.397333 91.989334-85.376 57.344 0.042667 36.010667 85.376 36.010666 85.376z"
		fill="#455A64"
		p-id="3920"
	></path>
	<path
		d="M629.333333 437.333333m-32 0a32 32 0 1 0 64 0 32 32 0 1 0-64 0Z"
		p-id="3921"
	></path>
	<path
		d="M394.666667 437.333333m-32 0a32 32 0 1 0 64 0 32 32 0 1 0-64 0Z"
		p-id="3922"
	></path>
	<path
		d="M490.666667 746.666667h42.666666v64h-42.666666z"
		fill="#607D8B"
		p-id="3923"
	></path>
</svg>